# xmcd CD database file
#
# Track frame offsets:
#	182
#	14212
#	27695
#	44837
#	57425
#	67415
#	81027
#	92377
#	105445
#	115045
#	128767
#	136345
#
# Disc length: 2024 seconds
#
# Revision: 1
# Processed by: cddbd v1.5.1PL0 Copyright (c) Steve Scherf et al.
# Submitted via: CDex 1.40Release
#
DISCID=ac07e60c
DTITLE=Superchunk - No Pocky For Kitty
DYEAR=1991
DGENRE=Rock
TTITLE0=Skip Steps 1 and 3
TTITLE1=Seed Toss
TTITLE2=Cast Iron
TTITLE3=Tower
TTITLE4=Punch Me Harder
TTITLE5=Sprung A Leak
TTITLE6=30 Xtra
TTITLE7=Tie A Rope To The Back Of The Bus
TTITLE8=Press
TTITLE9=Sidewalk
TTITLE10=Creek
TTITLE11=Throwing Things
EXTD=YEAR: 1991 ID3G: 17
EXTT0=
EXTT1=
EXTT2=
EXTT3=
EXTT4=
EXTT5=
EXTT6=
EXTT7=
EXTT8=
EXTT9=
EXTT10=
EXTT11=
PLAYORDER=
